<svg width="100" height="100" viewBox="0 0 100 100" fill="none" xmlns="http://www.w3.org/2000/svg">
<rect width="100" height="100" rx="12" fill="#1B1B1B"/>
<path d="M62.8682 18.508C62.8682 18.508 81.1214 38.1665 87.5266 45.2039C82.2731 56.7731 71.9217 58.2178 62.8697 57.885L62.8682 18.508Z" fill="white"/>
<path d="M18.5875 36.6419C18.5875 36.6419 38.5147 18.4009 45.6483 12C57.3693 17.2569 58.8292 27.6064 58.4883 36.6562L18.5875 36.6419Z" fill="white"/>
<path d="M80.9363 62.8609C80.9363 62.8609 61.0091 81.102 53.8755 87.5029C42.1545 82.246 40.6946 71.8965 41.0354 62.8467L80.9363 62.8609Z" fill="white"/>
<path d="M36.6584 80.8937C36.6584 80.8937 18.4052 60.8169 12 53.6297C17.2535 41.8144 27.6049 40.339 36.6569 40.6789L36.6584 80.8937Z" fill="white"/>
</svg>
