<svg width="313" height="88" viewBox="0 0 313 88" fill="none" xmlns="http://www.w3.org/2000/svg">
<path d="M105.207 52.2272V45.4127H115.324C116.648 45.4127 117.848 45.1467 118.924 44.6146C119.999 44.0825 120.848 43.3254 121.468 42.3431C122.089 41.3199 122.399 40.0921 122.399 38.6596C122.399 37.2681 122.089 36.0607 121.468 35.0375C120.848 34.0143 119.999 33.2367 118.924 32.7046C117.848 32.1726 116.648 31.9066 115.324 31.9066H105.207V25.0921H116.193C118.965 25.0921 121.448 25.6446 123.641 26.7497C125.875 27.8547 127.634 29.4304 128.916 31.4768C130.199 33.4823 130.84 35.8765 130.84 38.6596C130.84 41.4427 130.199 43.8574 128.916 45.9038C127.634 47.9093 125.875 49.4645 123.641 50.5696C121.448 51.6746 118.965 52.2272 116.193 52.2272H105.207ZM99 68.2503V25.0921H107.441V68.2503H99Z" fill="white"/>
<path d="M136.378 68.2503V23.8643H144.508V68.2503H136.378Z" fill="white"/>
<path d="M164.25 68.8643C161.519 68.8643 159.057 68.189 156.864 66.8383C154.671 65.4877 152.954 63.646 151.712 61.3131C150.471 58.9802 149.85 56.3608 149.85 53.455C149.85 50.5082 150.471 47.8684 151.712 45.5355C152.954 43.2026 154.671 41.3608 156.864 40.0102C159.057 38.6596 161.519 37.9843 164.25 37.9843C166.402 37.9843 168.326 38.4141 170.022 39.2735C171.719 40.133 173.064 41.3404 174.057 42.8956C175.091 44.41 175.65 46.1289 175.732 48.0525V58.7347C175.65 60.6992 175.091 62.4386 174.057 63.9529C173.064 65.4673 171.719 66.6746 170.022 67.575C168.326 68.4345 166.402 68.8643 164.25 68.8643ZM165.74 61.4359C168.015 61.4359 169.857 60.6992 171.264 59.2258C172.67 57.7115 173.374 55.7674 173.374 53.3936C173.374 51.8383 173.043 50.4673 172.381 49.2804C171.76 48.0525 170.871 47.1112 169.712 46.4563C168.595 45.7606 167.271 45.4127 165.74 45.4127C164.25 45.4127 162.926 45.7606 161.767 46.4563C160.65 47.1112 159.76 48.0525 159.098 49.2804C158.478 50.4673 158.167 51.8383 158.167 53.3936C158.167 54.9898 158.478 56.4018 159.098 57.6296C159.76 58.8165 160.65 59.7578 161.767 60.4536C162.926 61.1085 164.25 61.4359 165.74 61.4359ZM172.939 68.2503V60.2694L174.243 53.0252L172.939 45.9038V38.5982H181.008V68.2503H172.939Z" fill="white"/>
<path d="M208.373 68.2503V51.2449C208.373 49.485 207.814 48.0525 206.697 46.9475C205.58 45.8424 204.132 45.2899 202.352 45.2899C201.194 45.2899 200.159 45.5355 199.249 46.0266C198.339 46.5177 197.615 47.2135 197.077 48.1139C196.58 49.0143 196.332 50.058 196.332 51.2449L193.167 49.6487C193.167 47.3158 193.663 45.2899 194.656 43.5709C195.691 41.8111 197.097 40.44 198.877 39.4577C200.697 38.4754 202.746 37.9843 205.021 37.9843C207.214 37.9843 209.18 38.5368 210.918 39.6419C212.656 40.706 214.021 42.118 215.014 43.8779C216.007 45.5969 216.504 47.4591 216.504 49.4645V68.2503H208.373ZM188.201 68.2503V38.5982H196.332V68.2503H188.201Z" fill="white"/>
<path d="M223.053 68.2503V38.5982H231.246V68.2503H223.053ZM227.15 33.8097C225.826 33.8097 224.729 33.3799 223.86 32.5205C222.991 31.6201 222.557 30.515 222.557 29.2053C222.557 27.9366 222.991 26.852 223.86 25.9516C224.729 25.0512 225.826 24.601 227.15 24.601C228.515 24.601 229.612 25.0512 230.439 25.9516C231.308 26.852 231.743 27.9366 231.743 29.2053C231.743 30.515 231.308 31.6201 230.439 32.5205C229.612 33.3799 228.515 33.8097 227.15 33.8097Z" fill="white"/>
<path d="M242.856 68.2503V26.2585H250.986V68.2503H242.856ZM235.842 45.6583V38.5982H258V45.6583H235.842Z" fill="white"/>
<path d="M48.493 17.0703C48.493 17.0703 65.8939 35.8168 72 42.5277C66.9918 53.5601 57.1238 54.9379 48.4944 54.6205L48.493 17.0703Z" fill="white"/>
<path d="M6.27991 34.363C6.27991 34.363 25.2766 16.9681 32.0771 10.8643C43.2508 15.8772 44.6426 25.7466 44.3176 34.3766L6.27991 34.363Z" fill="white"/>
<path d="M65.7174 59.3656C65.7174 59.3656 46.7207 76.7604 39.9202 82.8643C28.7465 77.8513 27.3548 67.9819 27.6797 59.3519L65.7174 59.3656Z" fill="white"/>
<path d="M23.507 76.5617C23.507 76.5617 6.10608 57.4164 0 50.5626C5.00818 39.2955 14.8762 37.8885 23.5056 38.2126L23.507 76.5617Z" fill="white"/>
</svg>
